<svg xmlns="http://www.w3.org/2000/svg" width="133" height="119" viewBox="0 0 133 119"><path d="M 8.0 32.5 L 10.0 31.5 L 12.0 31.5 L 14.0 31.5 L 16.0 31.5 L 18.0 31.5 L 20.0 31.5 L 22.0 31.5 L 24.0 31.5 L 26.0 31.5 L 28.0 31.5 L 30.0 31.5 L 32.0 31.5 L 34.0 31.5 L 36.0 31.5 L 38.0 31.5 L 40.0 31.5 L 42.0 31.5 L 44.0 31.5 L 46.0 31.5 L 48.0 31.5 L 50.0 31.5 L 52.0 31.5 L 54.0 31.5 L 56.0 31.5 L 58.0 31.5 L 60.0 31.5 L 62.0 31.5 L 62.5 29.0 L 62.5 27.0 L 62.5 25.0 L 62.5 23.0 L 62.5 21.0 L 62.5 19.0 L 62.5 17.0 L 62.5 15.0 L 62.5 13.0 L 62.5 11.0 L 62.5 9.0 L 8.0 32.5 Z M 66.5 8.0 L 66.5 10.0 L 66.5 12.0 L 66.5 14.0 L 66.5 16.0 L 66.5 18.0 L 66.5 20.0 L 66.5 22.0 L 66.5 24.0 L 66.5 26.0 L 66.5 28.0 L 66.5 30.0 L 66.5 32.0 L 66.5 34.0 L 65.0 35.5 L 63.0 35.5 L 61.0 35.5 L 59.0 35.5 L 57.0 35.5 L 55.0 35.5 L 53.0 35.5 L 51.0 35.5 L 49.0 35.5 L 47.0 35.5 L 45.0 35.5 L 43.0 35.5 L 41.0 35.5 L 39.0 35.5 L 37.0 35.5 L 35.0 35.5 L 33.0 35.5 L 31.0 35.5 L 29.0 35.5 L 27.0 35.5 L 25.0 35.5 L 23.0 35.5 L 21.0 35.5 L 19.0 35.5 L 17.0 35.5 L 15.0 35.5 L 13.0 35.5 L 11.0 35.5 L 9.0 35.5 L 66.5 8.0 Z M 8.0 42.5 L 10.0 42.5 L 12.0 42.5 L 14.0 42.5 L 16.0 42.5 L 18.0 42.5 L 20.0 42.5 L 22.0 42.5 L 24.0 42.5 L 26.0 42.5 L 28.0 42.5 L 30.0 42.5 L 32.0 42.5 L 34.0 42.5 L 36.0 42.5 L 38.0 42.5 L 40.0 42.5 L 42.0 42.5 L 44.0 42.5 L 46.0 42.5 L 48.0 42.5 L 50.0 42.5 L 52.0 42.5 L 54.0 42.5 L 56.0 42.5 L 58.0 42.5 L 60.0 42.5 L 62.0 42.5 L 64.0 42.5 L 66.0 42.5 L 68.0 42.5 L 70.0 42.5 L 72.0 42.5 L 73.5 41.0 L 73.5 39.0 L 73.5 37.0 L 73.5 35.0 L 73.5 33.0 L 73.5 31.0 L 73.5 29.0 L 73.5 27.0 L 73.5 25.0 L 73.5 23.0 L 73.5 21.0 L 73.5 19.0 L 73.5 17.0 L 73.5 15.0 L 73.5 13.0 L 73.5 11.0 L 73.5 9.0 L 8.0 42.5 Z M 76.5 8.0 L 76.5 10.0 L 76.5 12.0 L 76.5 14.0 L 76.5 16.0 L 76.5 18.0 L 76.5 20.0 L 77.5 22.0 L 77.5 24.0 L 77.5 26.0 L 77.5 28.0 L 76.5 30.0 L 76.5 32.0 L 76.5 34.0 L 76.5 36.0 L 76.5 38.0 L 76.5 40.0 L 77.5 42.0 L 77.5 44.0 L 76.0 45.5 L 74.0 45.5 L 72.0 45.5 L 70.0 45.5 L 68.0 45.5 L 66.0 45.5 L 64.0 45.5 L 62.0 45.5 L 60.0 45.5 L 58.0 45.5 L 56.0 45.5 L 54.0 45.5 L 52.0 45.5 L 50.0 45.5 L 48.0 45.5 L 46.0 45.5 L 44.0 45.5 L 42.0 45.5 L 40.0 45.5 L 38.0 45.5 L 36.0 45.5 L 34.0 45.5 L 32.0 45.5 L 30.0 45.5 L 28.0 45.5 L 26.0 45.5 L 24.0 45.5 L 22.0 45.5 L 20.0 45.5 L 18.0 45.5 L 16.0 45.5 L 14.0 45.5 L 12.0 45.5 L 10.0 45.5 L 8.0 45.5 L 76.5 8.0 Z M 34.5 110.0 L 34.5 108.0 L 34.5 106.0 L 34.5 104.0 L 34.5 102.0 L 34.5 100.0 L 34.5 98.0 L 34.5 96.0 L 34.5 94.0 L 34.5 92.0 L 34.5 90.0 L 34.5 88.0 L 34.5 86.0 L 34.5 84.0 L 34.5 82.0 L 34.5 80.0 L 34.5 78.0 L 34.5 76.0 L 34.5 74.0 L 34.5 72.0 L 34.5 70.0 L 34.5 68.0 L 34.5 66.0 L 34.5 64.0 L 34.5 62.0 L 34.5 60.0 L 34.5 58.0 L 34.5 56.0 L 34.5 54.0 L 36.0 52.5 L 38.0 52.5 L 40.0 52.5 L 42.0 52.5 L 44.0 52.5 L 46.0 52.5 L 48.0 52.5 L 50.0 52.5 L 52.0 52.5 L 54.0 52.5 L 56.0 52.5 L 58.0 52.5 L 60.0 52.5 L 62.0 52.5 L 64.0 52.5 L 66.0 52.5 L 68.0 52.5 L 70.0 52.5 L 72.0 52.5 L 74.0 52.5 L 76.0 52.5 L 78.0 52.5 L 80.0 52.5 L 82.0 52.5 L 83.5 51.0 L 83.5 49.0 L 83.5 47.0 L 83.5 45.0 L 83.5 43.0 L 83.5 41.0 L 83.5 39.0 L 83.5 37.0 L 83.5 35.0 L 83.5 33.0 L 83.5 31.0 L 83.5 29.0 L 83.5 27.0 L 83.5 25.0 L 83.5 23.0 L 83.5 21.0 L 83.5 19.0 L 83.5 17.0 L 83.5 15.0 L 83.5 13.0 L 83.5 11.0 L 83.5 9.0 L 34.5 110.0 Z M 87.5 8.0 L 87.5 10.0 L 87.5 12.0 L 87.5 14.0 L 87.5 16.0 L 87.5 18.0 L 87.5 20.0 L 87.5 22.0 L 87.5 24.0 L 87.5 26.0 L 87.5 28.0 L 87.5 30.0 L 87.5 32.0 L 87.5 34.0 L 87.5 36.0 L 87.5 38.0 L 87.5 40.0 L 87.5 42.0 L 87.5 44.0 L 87.5 46.0 L 87.5 48.0 L 87.5 50.0 L 87.5 52.0 L 87.5 54.0 L 86.5 56.0 L 84.0 56.5 L 82.0 56.5 L 80.0 56.5 L 78.0 56.5 L 76.0 56.5 L 74.0 56.5 L 72.0 56.5 L 70.0 56.5 L 68.0 56.5 L 66.0 56.5 L 64.0 56.5 L 62.0 56.5 L 60.0 56.5 L 58.0 56.5 L 56.0 56.5 L 54.0 56.5 L 52.0 56.5 L 50.0 56.5 L 48.0 56.5 L 46.0 56.5 L 44.0 56.5 L 42.0 56.5 L 40.0 56.5 L 38.0 56.5 L 37.5 59.0 L 37.5 61.0 L 37.5 63.0 L 37.5 65.0 L 37.5 67.0 L 37.5 69.0 L 37.5 71.0 L 37.5 73.0 L 37.5 75.0 L 37.5 77.0 L 37.5 79.0 L 37.5 81.0 L 37.5 83.0 L 37.5 85.0 L 37.5 87.0 L 37.5 89.0 L 37.5 91.0 L 37.5 93.0 L 37.5 95.0 L 37.5 97.0 L 37.5 99.0 L 37.5 101.0 L 37.5 103.0 L 37.5 105.0 L 37.5 107.0 L 37.5 109.0 L 87.5 8.0 Z M 44.5 110.0 L 44.5 108.0 L 44.5 106.0 L 44.5 104.0 L 44.5 102.0 L 44.5 100.0 L 44.5 98.0 L 44.5 96.0 L 44.5 94.0 L 44.5 92.0 L 44.5 90.0 L 44.5 88.0 L 44.5 86.0 L 44.5 84.0 L 44.5 82.0 L 44.5 80.0 L 44.5 78.0 L 44.5 76.0 L 44.5 74.0 L 44.5 72.0 L 44.5 70.0 L 44.5 68.0 L 44.5 66.0 L 44.5 64.0 L 46.0 62.5 L 48.0 62.5 L 50.0 62.5 L 52.0 62.5 L 54.0 62.5 L 56.0 62.5 L 58.0 62.5 L 60.0 62.5 L 62.0 62.5 L 64.0 62.5 L 66.0 62.5 L 68.0 62.5 L 70.0 62.5 L 72.0 62.5 L 74.0 62.5 L 76.0 62.5 L 78.0 62.5 L 80.0 62.5 L 82.0 62.5 L 84.0 62.5 L 86.0 62.5 L 88.0 62.5 L 90.0 62.5 L 92.0 62.5 L 93.5 61.0 L 93.5 59.0 L 93.5 57.0 L 93.5 55.0 L 93.5 53.0 L 93.5 51.0 L 93.5 49.0 L 93.5 47.0 L 93.5 45.0 L 93.5 43.0 L 93.5 41.0 L 93.5 39.0 L 93.5 37.0 L 93.5 35.0 L 93.5 33.0 L 93.5 31.0 L 93.5 29.0 L 93.5 27.0 L 93.5 25.0 L 93.5 23.0 L 93.5 21.0 L 93.5 19.0 L 93.5 17.0 L 93.5 15.0 L 93.5 13.0 L 93.5 11.0 L 93.5 9.0 L 44.5 110.0 Z M 97.5 8.0 L 97.5 10.0 L 97.5 12.0 L 97.5 14.0 L 97.5 16.0 L 97.5 18.0 L 97.5 20.0 L 97.5 22.0 L 97.5 24.0 L 97.5 26.0 L 97.5 28.0 L 97.5 30.0 L 97.5 32.0 L 97.5 34.0 L 97.5 36.0 L 97.5 38.0 L 97.5 40.0 L 97.5 42.0 L 97.5 44.0 L 97.5 46.0 L 97.5 48.0 L 97.5 50.0 L 97.5 52.0 L 97.5 54.0 L 97.5 56.0 L 97.5 58.0 L 97.5 60.0 L 97.5 62.0 L 97.5 64.0 L 97.5 66.0 L 95.0 66.5 L 93.0 66.5 L 91.0 66.5 L 89.0 66.5 L 87.0 66.5 L 85.0 66.5 L 83.0 66.5 L 81.0 66.5 L 79.0 66.5 L 77.0 66.5 L 75.0 66.5 L 73.0 66.5 L 71.0 66.5 L 69.0 66.5 L 67.0 66.5 L 65.0 66.5 L 63.0 66.5 L 61.0 66.5 L 59.0 66.5 L 57.0 66.5 L 55.0 66.5 L 53.0 66.5 L 51.0 66.5 L 49.0 66.5 L 48.5 69.0 L 48.5 71.0 L 48.5 73.0 L 48.5 75.0 L 48.5 77.0 L 48.5 79.0 L 48.5 81.0 L 48.5 83.0 L 48.5 85.0 L 48.5 87.0 L 48.5 89.0 L 48.5 91.0 L 48.5 93.0 L 48.5 95.0 L 48.5 97.0 L 48.5 99.0 L 48.5 101.0 L 48.5 103.0 L 48.5 105.0 L 48.5 107.0 L 48.5 109.0 L 97.5 8.0 Z M 124.0 35.5 L 122.0 35.5 L 120.0 35.5 L 118.0 35.5 L 116.0 35.5 L 114.0 35.5 L 112.0 35.5 L 110.0 35.5 L 108.0 35.5 L 106.0 35.5 L 104.0 34.5 L 104.0 32.5 L 106.0 31.5 L 108.0 31.5 L 110.0 31.5 L 112.0 31.5 L 114.0 31.5 L 116.0 31.5 L 118.0 31.5 L 120.0 31.5 L 122.0 31.5 L 124.0 31.5 L 124.0 35.5 Z M 124.0 45.5 L 122.0 45.5 L 120.0 45.5 L 118.0 45.5 L 116.0 45.5 L 114.0 45.5 L 112.0 45.5 L 110.0 45.5 L 108.0 45.5 L 106.0 45.5 L 104.0 45.5 L 103.5 43.0 L 106.0 42.5 L 108.0 42.5 L 110.0 42.5 L 112.0 42.5 L 114.0 42.5 L 116.0 42.5 L 118.0 42.5 L 120.0 42.5 L 122.0 42.5 L 124.0 42.5 L 124.0 45.5 Z M 8.0 73.5 L 10.0 73.5 L 12.0 73.5 L 14.0 73.5 L 16.0 73.5 L 18.0 73.5 L 20.0 73.5 L 22.0 73.5 L 24.0 73.5 L 26.0 73.5 L 28.0 73.5 L 28.5 76.0 L 26.0 76.5 L 24.0 76.5 L 22.0 76.5 L 20.0 76.5 L 18.0 76.5 L 16.0 76.5 L 14.0 76.5 L 12.0 76.5 L 10.0 76.5 L 8.0 76.5 L 8.0 73.5 Z M 54.5 110.0 L 54.5 108.0 L 54.5 106.0 L 54.5 104.0 L 54.5 102.0 L 54.5 100.0 L 54.5 98.0 L 54.5 96.0 L 54.5 94.0 L 54.5 92.0 L 54.5 90.0 L 54.5 88.0 L 54.5 86.0 L 54.5 84.0 L 54.5 82.0 L 54.5 80.0 L 54.5 78.0 L 54.5 76.0 L 54.5 74.0 L 57.0 73.5 L 59.0 73.5 L 61.0 73.5 L 63.0 73.5 L 65.0 73.5 L 67.0 73.5 L 69.0 73.5 L 71.0 73.5 L 73.0 73.5 L 75.0 73.5 L 77.0 73.5 L 79.0 73.5 L 81.0 73.5 L 83.0 73.5 L 85.0 73.5 L 87.0 73.5 L 89.0 73.5 L 91.0 73.5 L 93.0 73.5 L 95.0 73.5 L 97.0 73.5 L 99.0 73.5 L 101.0 73.5 L 103.0 73.5 L 105.0 73.5 L 107.0 73.5 L 109.0 73.5 L 111.0 73.5 L 113.0 73.5 L 115.0 73.5 L 117.0 73.5 L 119.0 73.5 L 121.0 73.5 L 123.0 73.5 L 54.5 110.0 Z M 124.0 76.5 L 122.0 76.5 L 120.0 76.5 L 118.0 76.5 L 116.0 76.5 L 114.0 76.5 L 112.0 76.5 L 110.0 76.5 L 108.0 76.5 L 106.0 76.5 L 104.0 76.5 L 102.0 76.5 L 100.0 76.5 L 98.0 76.5 L 96.0 76.5 L 94.0 76.5 L 92.0 76.5 L 90.0 76.5 L 88.0 76.5 L 86.0 76.5 L 84.0 76.5 L 82.0 76.5 L 80.0 76.5 L 78.0 76.5 L 76.0 76.5 L 74.0 76.5 L 72.0 76.5 L 70.0 76.5 L 68.0 76.5 L 66.0 76.5 L 64.0 76.5 L 62.0 76.5 L 60.0 76.5 L 58.5 78.0 L 58.5 80.0 L 58.5 82.0 L 58.5 84.0 L 58.5 86.0 L 58.5 88.0 L 58.5 90.0 L 58.5 92.0 L 58.5 94.0 L 58.5 96.0 L 58.5 98.0 L 58.5 100.0 L 58.5 102.0 L 58.5 104.0 L 58.5 106.0 L 58.5 108.0 L 58.5 110.0 L 124.0 76.5 Z M 8.0 84.5 L 10.0 83.5 L 12.0 83.5 L 14.0 83.5 L 16.0 83.5 L 18.0 83.5 L 20.0 83.5 L 22.0 83.5 L 24.0 83.5 L 26.0 83.5 L 28.0 83.5 L 28.5 86.0 L 27.0 87.5 L 25.0 87.5 L 23.0 87.5 L 21.0 87.5 L 19.0 87.5 L 17.0 87.5 L 15.0 87.5 L 13.0 87.5 L 11.0 87.5 L 9.0 87.5 L 8.0 84.5 Z M 65.5 110.0 L 65.5 108.0 L 65.5 106.0 L 65.5 104.0 L 65.5 102.0 L 65.5 100.0 L 65.5 98.0 L 65.5 96.0 L 65.5 94.0 L 65.5 92.0 L 65.5 90.0 L 65.5 88.0 L 65.5 86.0 L 65.5 84.0 L 68.0 83.5 L 70.0 83.5 L 72.0 83.5 L 74.0 83.5 L 76.0 83.5 L 78.0 83.5 L 80.0 83.5 L 82.0 83.5 L 84.0 83.5 L 86.0 83.5 L 88.0 83.5 L 90.0 83.5 L 92.0 83.5 L 94.0 83.5 L 96.0 83.5 L 98.0 83.5 L 100.0 83.5 L 102.0 83.5 L 104.0 83.5 L 106.0 83.5 L 108.0 83.5 L 110.0 83.5 L 112.0 83.5 L 114.0 83.5 L 116.0 83.5 L 118.0 83.5 L 120.0 83.5 L 122.0 83.5 L 124.0 83.5 L 65.5 110.0 Z M 124.0 87.5 L 122.0 87.5 L 120.0 87.5 L 118.0 87.5 L 116.0 87.5 L 114.0 87.5 L 112.0 87.5 L 110.0 87.5 L 108.0 87.5 L 106.0 87.5 L 104.0 87.5 L 102.0 87.5 L 100.0 87.5 L 98.0 87.5 L 96.0 87.5 L 94.0 87.5 L 92.0 87.5 L 90.0 87.5 L 88.0 87.5 L 86.0 87.5 L 84.0 87.5 L 82.0 87.5 L 80.0 87.5 L 78.0 87.5 L 76.0 87.5 L 74.0 87.5 L 72.0 87.5 L 70.0 87.5 L 68.5 89.0 L 68.5 91.0 L 68.5 93.0 L 68.5 95.0 L 68.5 97.0 L 68.5 99.0 L 68.5 101.0 L 68.5 103.0 L 68.5 105.0 L 68.5 107.0 L 68.5 109.0 L 124.0 87.5 Z" fill="#FFFFFF" fill-rule="evenodd"/></svg>