<svg xmlns="http://www.w3.org/2000/svg" width="157" height="80" viewBox="0 0 157 80"><path d="M 67.0 19.5 L 65.0 19.5 L 63.0 19.5 L 61.0 19.5 L 59.5 18.0 L 58.5 16.0 L 58.5 14.0 L 58.5 12.0 L 60.0 10.5 L 61.5 9.0 L 64.0 8.5 L 66.0 8.5 L 68.0 9.5 L 69.0 11.5 L 69.5 14.0 L 69.5 16.0 L 68.5 18.0 L 67.0 19.5 Z M 124.5 8.0 L 125.5 10.0 L 127.0 11.5 L 128.0 13.5 L 129.5 15.0 L 130.5 17.0 L 131.5 19.0 L 130.0 20.5 L 128.0 20.5 L 126.0 20.5 L 124.0 19.5 L 122.5 18.0 L 121.5 16.0 L 120.5 14.0 L 119.0 12.5 L 117.5 11.0 L 116.5 9.0 L 124.5 8.0 Z M 8.0 10.5 L 10.0 10.5 L 12.0 10.5 L 14.0 10.5 L 16.0 10.5 L 18.0 10.5 L 20.0 10.5 L 22.0 10.5 L 24.0 10.5 L 26.0 10.5 L 28.0 10.5 L 30.0 10.5 L 32.0 10.5 L 34.0 10.5 L 36.0 10.5 L 38.0 10.5 L 40.0 10.5 L 42.0 10.5 L 44.0 10.5 L 46.0 10.5 L 48.0 10.5 L 50.0 10.5 L 50.5 13.0 L 50.5 15.0 L 50.5 17.0 L 49.0 18.5 L 47.0 18.5 L 45.0 18.5 L 43.0 18.5 L 41.0 18.5 L 39.0 18.5 L 37.0 18.5 L 35.0 18.5 L 33.0 18.5 L 31.0 18.5 L 29.0 18.5 L 27.0 18.5 L 25.0 18.5 L 23.0 18.5 L 21.0 18.5 L 19.0 18.5 L 17.0 18.5 L 16.5 21.0 L 16.5 23.0 L 16.5 25.0 L 16.5 27.0 L 16.5 29.0 L 16.5 31.0 L 16.5 33.0 L 16.5 35.0 L 19.0 35.5 L 21.0 35.5 L 23.0 35.5 L 25.0 35.5 L 27.0 35.5 L 29.0 35.5 L 31.0 35.5 L 33.0 35.5 L 35.0 35.5 L 37.0 35.5 L 39.0 35.5 L 41.0 35.5 L 43.0 35.5 L 45.0 35.5 L 47.0 35.5 L 47.5 38.0 L 47.5 40.0 L 47.5 42.0 L 46.0 43.5 L 44.0 43.5 L 42.0 43.5 L 40.0 43.5 L 38.0 43.5 L 36.0 43.5 L 34.0 43.5 L 32.0 43.5 L 30.0 43.5 L 28.0 43.5 L 26.0 43.5 L 24.0 43.5 L 22.0 43.5 L 20.0 43.5 L 18.0 43.5 L 16.5 45.0 L 16.5 47.0 L 16.5 49.0 L 16.5 51.0 L 16.5 53.0 L 16.5 55.0 L 16.5 57.0 L 16.5 59.0 L 16.5 61.0 L 16.5 63.0 L 16.5 65.0 L 16.5 67.0 L 16.5 69.0 L 15.0 70.5 L 13.0 70.5 L 11.0 70.5 L 9.0 70.5 L 8.0 10.5 Z M 98.0 70.5 L 96.0 70.5 L 94.0 70.5 L 92.0 70.5 L 90.0 70.5 L 88.0 69.5 L 86.0 69.5 L 84.5 68.0 L 83.0 66.5 L 81.5 65.0 L 81.5 63.0 L 80.5 61.0 L 80.5 59.0 L 80.5 57.0 L 80.5 55.0 L 80.5 53.0 L 80.5 51.0 L 80.5 49.0 L 80.5 47.0 L 80.5 45.0 L 80.5 43.0 L 80.5 41.0 L 80.5 39.0 L 80.5 37.0 L 80.5 35.0 L 80.5 33.0 L 80.5 31.0 L 80.5 29.0 L 80.5 27.0 L 80.5 25.0 L 80.5 23.0 L 80.5 21.0 L 80.5 19.0 L 80.5 17.0 L 80.5 15.0 L 80.5 13.0 L 80.5 11.0 L 83.0 10.5 L 85.0 10.5 L 87.0 10.5 L 89.0 10.5 L 89.5 13.0 L 89.5 15.0 L 89.5 17.0 L 89.5 19.0 L 89.5 21.0 L 89.5 23.0 L 89.5 25.0 L 89.5 27.0 L 89.5 29.0 L 89.5 31.0 L 89.5 33.0 L 89.5 35.0 L 89.5 37.0 L 89.5 39.0 L 89.5 41.0 L 89.5 43.0 L 89.5 45.0 L 89.5 47.0 L 89.5 49.0 L 89.5 51.0 L 89.5 53.0 L 89.5 55.0 L 89.5 57.0 L 89.5 59.0 L 90.5 61.0 L 92.0 62.5 L 94.0 62.5 L 96.0 62.5 L 98.0 62.5 L 98.5 65.0 L 98.5 67.0 L 98.5 69.0 L 98.0 70.5 Z M 118.5 71.0 L 116.0 70.5 L 114.0 69.5 L 112.0 68.5 L 110.0 67.5 L 108.5 66.0 L 107.5 64.0 L 106.5 62.0 L 105.5 60.0 L 105.5 58.0 L 105.5 56.0 L 105.5 54.0 L 105.5 52.0 L 105.5 50.0 L 105.5 48.0 L 105.5 46.0 L 105.5 44.0 L 105.5 42.0 L 105.5 40.0 L 105.5 38.0 L 106.5 36.0 L 107.5 34.0 L 108.5 32.0 L 110.5 31.0 L 112.0 29.5 L 114.0 28.5 L 116.0 27.5 L 118.0 27.5 L 120.0 26.5 L 122.0 26.5 L 124.0 26.5 L 126.0 26.5 L 128.0 26.5 L 130.0 26.5 L 132.0 26.5 L 134.0 26.5 L 136.0 27.5 L 138.0 27.5 L 140.0 28.5 L 142.0 29.5 L 143.5 31.0 L 145.0 32.5 L 146.5 34.0 L 147.5 36.0 L 118.5 71.0 Z M 68.0 70.5 L 66.0 70.5 L 64.0 70.5 L 62.0 70.5 L 60.0 70.5 L 59.5 68.0 L 59.5 66.0 L 59.5 64.0 L 59.5 62.0 L 59.5 60.0 L 59.5 58.0 L 59.5 56.0 L 59.5 54.0 L 59.5 52.0 L 59.5 50.0 L 59.5 48.0 L 59.5 46.0 L 59.5 44.0 L 59.5 42.0 L 59.5 40.0 L 59.5 38.0 L 59.5 36.0 L 59.5 34.0 L 59.5 32.0 L 59.5 30.0 L 59.5 28.0 L 62.0 27.5 L 64.0 27.5 L 66.0 27.5 L 68.0 27.5 L 68.5 30.0 L 68.5 32.0 L 68.5 34.0 L 68.5 36.0 L 68.5 38.0 L 68.5 40.0 L 68.5 42.0 L 68.5 44.0 L 68.5 46.0 L 68.5 48.0 L 68.5 50.0 L 68.5 52.0 L 68.5 54.0 L 68.5 56.0 L 68.5 58.0 L 68.5 60.0 L 68.5 62.0 L 68.5 64.0 L 68.5 66.0 L 68.5 68.0 L 68.5 70.0 L 68.0 70.5 Z M 134.5 63.0 L 136.5 62.0 L 138.0 60.5 L 139.5 59.0 L 139.5 57.0 L 139.5 55.0 L 139.5 53.0 L 139.5 51.0 L 139.5 49.0 L 139.5 47.0 L 139.5 45.0 L 139.5 43.0 L 139.5 41.0 L 139.5 39.0 L 138.0 37.5 L 136.5 36.0 L 134.5 35.0 L 132.0 34.5 L 130.0 34.5 L 128.0 34.5 L 126.0 34.5 L 124.0 34.5 L 122.0 34.5 L 120.0 34.5 L 118.0 35.5 L 116.5 37.0 L 115.0 38.5 L 114.5 41.0 L 113.5 43.0 L 113.5 45.0 L 113.5 47.0 L 113.5 49.0 L 113.5 51.0 L 113.5 53.0 L 113.5 55.0 L 114.5 57.0 L 114.5 59.0 L 116.0 60.5 L 117.5 62.0 L 119.5 63.0 L 122.0 63.5 L 124.0 63.5 L 126.0 63.5 L 128.0 63.5 L 130.0 63.5 L 132.0 63.5 L 134.0 63.5 L 134.5 63.0 Z M 148.0 60.5 L 147.5 63.0 L 146.0 64.5 L 144.5 66.0 L 143.0 67.5 L 141.5 69.0 L 139.0 69.5 L 137.0 70.5 L 135.0 70.5 L 148.0 60.5 Z" fill="#FFFFFF" fill-rule="evenodd"/></svg>