<svg xmlns="http://www.w3.org/2000/svg" width="279" height="108" viewBox="0 0 279 108"><path d="M 8.0 29.5 L 10.0 29.5 L 12.0 29.5 L 14.0 29.5 L 16.0 29.5 L 18.0 29.5 L 20.0 29.5 L 22.0 29.5 L 24.0 29.5 L 26.0 29.5 L 28.0 29.5 L 30.0 29.5 L 32.0 29.5 L 34.0 29.5 L 36.0 29.5 L 38.0 29.5 L 40.0 29.5 L 42.0 29.5 L 44.0 29.5 L 46.0 29.5 L 48.0 29.5 L 50.0 29.5 L 52.0 29.5 L 52.5 27.0 L 52.5 25.0 L 52.5 23.0 L 52.5 21.0 L 52.5 19.0 L 52.5 17.0 L 52.5 15.0 L 52.5 13.0 L 52.5 11.0 L 52.5 9.0 L 8.0 29.5 Z M 55.5 8.0 L 55.5 10.0 L 55.5 12.0 L 55.5 14.0 L 55.5 16.0 L 55.5 18.0 L 55.5 20.0 L 55.5 22.0 L 55.5 24.0 L 55.5 26.0 L 55.5 28.0 L 55.5 30.0 L 55.5 32.0 L 53.0 32.5 L 51.0 32.5 L 49.0 32.5 L 47.0 32.5 L 45.0 32.5 L 43.0 32.5 L 41.0 32.5 L 39.0 32.5 L 37.0 32.5 L 35.0 32.5 L 33.0 32.5 L 31.0 32.5 L 29.0 32.5 L 27.0 32.5 L 25.0 32.5 L 23.0 32.5 L 21.0 32.5 L 19.0 32.5 L 17.0 32.5 L 15.0 32.5 L 13.0 32.5 L 11.0 32.5 L 9.0 32.5 L 55.5 8.0 Z M 8.0 38.5 L 10.0 38.5 L 12.0 38.5 L 14.0 38.5 L 16.0 38.5 L 18.0 38.5 L 20.0 38.5 L 22.0 38.5 L 24.0 38.5 L 26.0 38.5 L 28.0 38.5 L 30.0 38.5 L 32.0 38.5 L 34.0 38.5 L 36.0 38.5 L 38.0 38.5 L 40.0 38.5 L 42.0 38.5 L 44.0 38.5 L 46.0 38.5 L 48.0 38.5 L 50.0 38.5 L 52.0 38.5 L 54.0 38.5 L 56.0 38.5 L 58.0 38.5 L 60.0 38.5 L 61.5 37.0 L 61.5 35.0 L 61.5 33.0 L 61.5 31.0 L 61.5 29.0 L 61.5 27.0 L 61.5 25.0 L 61.5 23.0 L 61.5 21.0 L 61.5 19.0 L 61.5 17.0 L 61.5 15.0 L 61.5 13.0 L 61.5 11.0 L 61.5 9.0 L 8.0 38.5 Z M 65.5 8.0 L 65.5 10.0 L 65.5 12.0 L 65.5 14.0 L 65.5 16.0 L 65.5 18.0 L 65.5 20.0 L 65.5 22.0 L 65.5 24.0 L 65.5 26.0 L 65.5 28.0 L 65.5 30.0 L 65.5 32.0 L 65.5 34.0 L 65.5 36.0 L 65.5 38.0 L 65.5 40.0 L 64.5 42.0 L 62.0 42.5 L 60.0 42.5 L 58.0 42.5 L 56.0 42.5 L 54.0 42.5 L 52.0 42.5 L 50.0 42.5 L 48.0 42.5 L 46.0 42.5 L 44.0 42.5 L 42.0 42.5 L 40.0 42.5 L 38.0 42.5 L 36.0 42.5 L 34.0 42.5 L 32.0 42.5 L 30.0 42.5 L 28.0 42.5 L 26.0 42.5 L 24.0 42.5 L 22.0 42.5 L 20.0 42.5 L 18.0 42.5 L 16.0 42.5 L 14.0 42.5 L 12.0 42.5 L 10.0 42.5 L 8.0 42.5 L 65.5 8.0 Z M 31.5 99.0 L 31.5 97.0 L 31.5 95.0 L 31.5 93.0 L 31.5 91.0 L 31.5 89.0 L 31.5 87.0 L 31.5 85.0 L 31.5 83.0 L 31.5 81.0 L 31.5 79.0 L 31.5 77.0 L 31.5 75.0 L 31.5 73.0 L 31.5 71.0 L 31.5 69.0 L 31.5 67.0 L 31.5 65.0 L 31.5 63.0 L 31.5 61.0 L 31.5 59.0 L 31.5 57.0 L 31.5 55.0 L 31.5 53.0 L 31.5 51.0 L 31.5 49.0 L 33.0 47.5 L 35.0 47.5 L 37.0 47.5 L 39.0 47.5 L 41.0 47.5 L 43.0 47.5 L 45.0 47.5 L 47.0 47.5 L 49.0 47.5 L 51.0 47.5 L 53.0 47.5 L 55.0 47.5 L 57.0 47.5 L 59.0 47.5 L 61.0 47.5 L 63.0 47.5 L 65.0 47.5 L 67.0 47.5 L 69.0 47.5 L 71.0 47.5 L 71.5 45.0 L 71.5 43.0 L 71.5 41.0 L 71.5 39.0 L 71.5 37.0 L 71.5 35.0 L 71.5 33.0 L 71.5 31.0 L 71.5 29.0 L 71.5 27.0 L 71.5 25.0 L 71.5 23.0 L 71.5 21.0 L 71.5 19.0 L 71.5 17.0 L 71.5 15.0 L 71.5 13.0 L 71.5 11.0 L 71.5 9.0 L 31.5 99.0 Z M 74.5 8.0 L 74.5 10.0 L 74.5 12.0 L 74.5 14.0 L 74.5 16.0 L 74.5 18.0 L 74.5 20.0 L 74.5 22.0 L 74.5 24.0 L 74.5 26.0 L 74.5 28.0 L 74.5 30.0 L 74.5 32.0 L 74.5 34.0 L 74.5 36.0 L 74.5 38.0 L 74.5 40.0 L 74.5 42.0 L 74.5 44.0 L 74.5 46.0 L 74.5 48.0 L 74.5 50.0 L 72.0 50.5 L 70.0 50.5 L 68.0 50.5 L 66.0 50.5 L 64.0 50.5 L 62.0 50.5 L 60.0 50.5 L 58.0 50.5 L 56.0 50.5 L 54.0 50.5 L 52.0 50.5 L 50.0 50.5 L 48.0 50.5 L 46.0 50.5 L 44.0 50.5 L 42.0 50.5 L 40.0 50.5 L 38.0 50.5 L 36.0 51.5 L 34.5 53.0 L 34.5 55.0 L 34.5 57.0 L 34.5 59.0 L 34.5 61.0 L 34.5 63.0 L 34.5 65.0 L 34.5 67.0 L 34.5 69.0 L 34.5 71.0 L 34.5 73.0 L 34.5 75.0 L 34.5 77.0 L 34.5 79.0 L 34.5 81.0 L 34.5 83.0 L 34.5 85.0 L 34.5 87.0 L 34.5 89.0 L 34.5 91.0 L 34.5 93.0 L 34.5 95.0 L 34.5 97.0 L 34.5 99.0 L 74.5 8.0 Z M 40.5 99.0 L 40.5 97.0 L 40.5 95.0 L 40.5 93.0 L 40.5 91.0 L 40.5 89.0 L 40.5 87.0 L 40.5 85.0 L 40.5 83.0 L 40.5 81.0 L 40.5 79.0 L 40.5 77.0 L 40.5 75.0 L 40.5 73.0 L 40.5 71.0 L 40.5 69.0 L 40.5 67.0 L 40.5 65.0 L 40.5 63.0 L 40.5 61.0 L 40.5 59.0 L 40.5 57.0 L 43.0 56.5 L 45.0 56.5 L 47.0 56.5 L 49.0 56.5 L 51.0 56.5 L 53.0 56.5 L 55.0 56.5 L 57.0 56.5 L 59.0 56.5 L 61.0 56.5 L 63.0 56.5 L 65.0 56.5 L 67.0 56.5 L 69.0 56.5 L 71.0 56.5 L 73.0 56.5 L 75.0 56.5 L 77.0 56.5 L 79.0 56.5 L 79.5 54.0 L 79.5 52.0 L 79.5 50.0 L 79.5 48.0 L 79.5 46.0 L 79.5 44.0 L 79.5 42.0 L 79.5 40.0 L 79.5 38.0 L 79.5 36.0 L 79.5 34.0 L 79.5 32.0 L 79.5 30.0 L 79.5 28.0 L 79.5 26.0 L 79.5 24.0 L 79.5 22.0 L 79.5 20.0 L 79.5 18.0 L 80.5 16.0 L 80.5 14.0 L 80.5 12.0 L 80.5 10.0 L 80.5 8.0 L 40.5 99.0 Z M 83.5 8.0 L 83.5 10.0 L 83.5 12.0 L 83.5 14.0 L 83.5 16.0 L 83.5 18.0 L 83.5 20.0 L 83.5 22.0 L 83.5 24.0 L 83.5 26.0 L 83.5 28.0 L 83.5 30.0 L 83.5 32.0 L 83.5 34.0 L 83.5 36.0 L 83.5 38.0 L 83.5 40.0 L 83.5 42.0 L 83.5 44.0 L 83.5 46.0 L 83.5 48.0 L 83.5 50.0 L 83.5 52.0 L 83.5 54.0 L 83.5 56.0 L 83.5 58.0 L 82.0 59.5 L 80.0 60.5 L 78.0 60.5 L 76.0 60.5 L 74.0 60.5 L 72.0 60.5 L 70.0 60.5 L 68.0 60.5 L 66.0 60.5 L 64.0 60.5 L 62.0 60.5 L 60.0 60.5 L 58.0 60.5 L 56.0 60.5 L 54.0 60.5 L 52.0 60.5 L 50.0 60.5 L 48.0 60.5 L 46.0 60.5 L 44.0 60.5 L 43.5 63.0 L 43.5 65.0 L 43.5 67.0 L 43.5 69.0 L 43.5 71.0 L 43.5 73.0 L 43.5 75.0 L 43.5 77.0 L 43.5 79.0 L 43.5 81.0 L 43.5 83.0 L 43.5 85.0 L 43.5 87.0 L 43.5 89.0 L 43.5 91.0 L 43.5 93.0 L 43.5 95.0 L 43.5 97.0 L 43.5 99.0 L 83.5 8.0 Z M 254.0 31.5 L 252.0 31.5 L 250.0 31.5 L 248.0 31.5 L 246.0 30.5 L 245.0 28.5 L 243.5 27.0 L 242.5 25.0 L 241.0 23.5 L 239.5 22.0 L 238.5 20.0 L 240.0 18.5 L 242.0 18.5 L 244.0 18.5 L 246.0 18.5 L 247.5 20.0 L 248.5 22.0 L 249.5 24.0 L 250.5 26.0 L 252.0 27.5 L 253.0 29.5 L 254.5 31.0 L 254.0 31.5 Z M 190.0 30.5 L 188.0 30.5 L 186.0 30.5 L 184.0 29.5 L 182.5 28.0 L 181.5 26.0 L 182.5 24.0 L 182.5 22.0 L 184.0 20.5 L 186.0 19.5 L 188.0 19.5 L 190.0 20.5 L 191.5 22.0 L 192.5 24.0 L 192.5 26.0 L 192.5 28.0 L 191.0 29.5 L 190.0 30.5 Z M 139.0 81.5 L 137.0 81.5 L 135.0 81.5 L 133.0 81.5 L 131.5 80.0 L 131.5 78.0 L 131.5 76.0 L 131.5 74.0 L 131.5 72.0 L 131.5 70.0 L 131.5 68.0 L 131.5 66.0 L 131.5 64.0 L 131.5 62.0 L 131.5 60.0 L 131.5 58.0 L 131.5 56.0 L 131.5 54.0 L 131.5 52.0 L 131.5 50.0 L 131.5 48.0 L 131.5 46.0 L 131.5 44.0 L 131.5 42.0 L 131.5 40.0 L 131.5 38.0 L 131.5 36.0 L 131.5 34.0 L 131.5 32.0 L 131.5 30.0 L 131.5 28.0 L 131.5 26.0 L 131.5 24.0 L 131.5 22.0 L 134.0 21.5 L 136.0 21.5 L 138.0 21.5 L 140.0 21.5 L 142.0 21.5 L 144.0 21.5 L 146.0 21.5 L 148.0 21.5 L 150.0 21.5 L 152.0 21.5 L 154.0 21.5 L 156.0 21.5 L 158.0 21.5 L 160.0 21.5 L 162.0 21.5 L 164.0 21.5 L 166.0 21.5 L 168.0 21.5 L 170.0 21.5 L 172.0 21.5 L 174.0 21.5 L 174.5 24.0 L 174.5 26.0 L 174.5 28.0 L 173.0 29.5 L 171.0 29.5 L 169.0 29.5 L 167.0 29.5 L 165.0 29.5 L 163.0 29.5 L 161.0 29.5 L 159.0 29.5 L 157.0 29.5 L 155.0 29.5 L 153.0 29.5 L 151.0 29.5 L 149.0 29.5 L 147.0 29.5 L 145.0 29.5 L 143.0 29.5 L 141.0 29.5 L 140.5 32.0 L 140.5 34.0 L 140.5 36.0 L 140.5 38.0 L 140.5 40.0 L 140.5 42.0 L 140.5 44.0 L 140.5 46.0 L 143.0 46.5 L 145.0 46.5 L 147.0 46.5 L 149.0 46.5 L 151.0 46.5 L 153.0 46.5 L 155.0 46.5 L 157.0 46.5 L 159.0 46.5 L 161.0 46.5 L 163.0 46.5 L 165.0 46.5 L 167.0 46.5 L 169.0 46.5 L 171.0 47.5 L 171.5 50.0 L 171.5 52.0 L 170.5 54.0 L 168.0 54.5 L 166.0 54.5 L 164.0 54.5 L 162.0 54.5 L 160.0 54.5 L 158.0 54.5 L 156.0 54.5 L 154.0 54.5 L 152.0 54.5 L 150.0 54.5 L 148.0 54.5 L 146.0 54.5 L 144.0 54.5 L 142.0 54.5 L 140.5 56.0 L 140.5 58.0 L 140.5 60.0 L 140.5 62.0 L 140.5 64.0 L 140.5 66.0 L 140.5 68.0 L 140.5 70.0 L 140.5 72.0 L 140.5 74.0 L 140.5 76.0 L 140.5 78.0 L 140.5 80.0 L 139.0 81.5 Z M 220.0 81.5 L 218.0 81.5 L 216.0 81.5 L 214.0 80.5 L 212.0 80.5 L 210.0 80.5 L 208.5 79.0 L 206.5 78.0 L 205.5 76.0 L 204.5 74.0 L 203.5 72.0 L 203.5 70.0 L 203.5 68.0 L 203.5 66.0 L 203.5 64.0 L 203.5 62.0 L 203.5 60.0 L 203.5 58.0 L 203.5 56.0 L 203.5 54.0 L 203.5 52.0 L 203.5 50.0 L 203.5 48.0 L 203.5 46.0 L 203.5 44.0 L 203.5 42.0 L 203.5 40.0 L 203.5 38.0 L 203.5 36.0 L 203.5 34.0 L 203.5 32.0 L 203.5 30.0 L 203.5 28.0 L 203.5 26.0 L 203.5 24.0 L 203.5 22.0 L 206.0 21.5 L 208.0 21.5 L 210.0 21.5 L 212.0 21.5 L 212.5 24.0 L 212.5 26.0 L 212.5 28.0 L 212.5 30.0 L 212.5 32.0 L 212.5 34.0 L 212.5 36.0 L 212.5 38.0 L 212.5 40.0 L 212.5 42.0 L 212.5 44.0 L 212.5 46.0 L 212.5 48.0 L 212.5 50.0 L 212.5 52.0 L 212.5 54.0 L 212.5 56.0 L 212.5 58.0 L 212.5 60.0 L 212.5 62.0 L 212.5 64.0 L 212.5 66.0 L 212.5 68.0 L 212.5 70.0 L 213.5 72.0 L 215.5 73.0 L 218.0 73.5 L 220.0 73.5 L 221.5 75.0 L 221.5 77.0 L 221.5 79.0 L 220.5 81.0 L 220.0 81.5 Z M 107.0 32.5 L 105.0 32.5 L 103.0 32.5 L 101.0 32.5 L 99.0 32.5 L 97.0 32.5 L 95.0 32.5 L 93.0 32.5 L 91.0 32.5 L 89.0 32.5 L 89.0 30.5 L 91.0 29.5 L 93.0 29.5 L 95.0 29.5 L 97.0 29.5 L 99.0 29.5 L 101.0 29.5 L 103.0 29.5 L 105.0 29.5 L 107.0 29.5 L 107.5 32.0 L 107.0 32.5 Z M 191.0 81.5 L 189.0 81.5 L 187.0 81.5 L 185.0 81.5 L 183.5 80.0 L 183.5 78.0 L 183.5 76.0 L 183.5 74.0 L 183.5 72.0 L 183.5 70.0 L 183.5 68.0 L 183.5 66.0 L 183.5 64.0 L 183.5 62.0 L 183.5 60.0 L 183.5 58.0 L 183.5 56.0 L 183.5 54.0 L 183.5 52.0 L 183.5 50.0 L 183.5 48.0 L 183.5 46.0 L 183.5 44.0 L 183.5 42.0 L 183.5 40.0 L 183.5 38.0 L 186.0 37.5 L 188.0 37.5 L 190.0 37.5 L 191.5 39.0 L 191.5 41.0 L 191.5 43.0 L 191.5 45.0 L 191.5 47.0 L 191.5 49.0 L 191.5 51.0 L 191.5 53.0 L 191.5 55.0 L 191.5 57.0 L 191.5 59.0 L 191.5 61.0 L 191.5 63.0 L 191.5 65.0 L 191.5 67.0 L 191.5 69.0 L 191.5 71.0 L 191.5 73.0 L 191.5 75.0 L 191.5 77.0 L 191.5 79.0 L 191.5 81.0 L 191.0 81.5 Z M 270.0 70.5 L 269.5 73.0 L 268.0 74.5 L 267.0 76.5 L 265.5 78.0 L 263.5 79.0 L 261.5 80.0 L 259.0 80.5 L 257.0 81.5 L 255.0 81.5 L 253.0 81.5 L 251.0 81.5 L 249.0 81.5 L 247.0 81.5 L 245.0 81.5 L 243.0 81.5 L 241.0 81.5 L 239.0 80.5 L 237.0 80.5 L 235.0 79.5 L 233.5 78.0 L 231.5 77.0 L 230.5 75.0 L 229.5 73.0 L 228.5 71.0 L 227.5 69.0 L 227.5 67.0 L 227.5 65.0 L 227.5 63.0 L 227.5 61.0 L 227.5 59.0 L 227.5 57.0 L 227.5 55.0 L 227.5 53.0 L 227.5 51.0 L 227.5 49.0 L 228.5 47.0 L 229.5 45.0 L 231.0 43.5 L 232.0 41.5 L 234.0 40.5 L 236.0 39.5 L 238.0 38.5 L 240.0 37.5 L 242.0 37.5 L 244.0 37.5 L 246.0 37.5 L 248.0 37.5 L 250.0 37.5 L 252.0 37.5 L 254.0 37.5 L 256.0 37.5 L 258.0 37.5 L 260.0 38.5 L 262.0 39.5 L 264.0 40.5 L 266.0 41.5 L 267.0 43.5 L 268.5 45.0 L 269.5 47.0 L 269.5 49.0 L 270.0 70.5 Z M 106.0 42.5 L 104.0 42.5 L 102.0 42.5 L 100.0 42.5 L 98.0 42.5 L 96.0 42.5 L 94.0 42.5 L 92.0 42.5 L 90.0 42.5 L 88.5 41.0 L 89.5 39.0 L 92.0 38.5 L 94.0 38.5 L 96.0 38.5 L 98.0 38.5 L 100.0 38.5 L 102.0 38.5 L 104.0 38.5 L 106.0 38.5 L 107.5 40.0 L 106.5 42.0 L 106.0 42.5 Z M 256.5 73.0 L 258.5 72.0 L 260.0 70.5 L 261.0 68.5 L 261.5 66.0 L 261.5 64.0 L 261.5 62.0 L 261.5 60.0 L 261.5 58.0 L 261.5 56.0 L 261.5 54.0 L 261.5 52.0 L 260.5 50.0 L 259.5 48.0 L 258.0 46.5 L 256.0 45.5 L 254.0 45.5 L 252.0 45.5 L 250.0 44.5 L 248.0 44.5 L 246.0 44.5 L 244.0 45.5 L 242.0 45.5 L 240.0 46.5 L 238.5 48.0 L 237.5 50.0 L 236.5 52.0 L 236.5 54.0 L 236.5 56.0 L 236.5 58.0 L 236.5 60.0 L 236.5 62.0 L 236.5 64.0 L 236.5 66.0 L 236.5 68.0 L 237.5 70.0 L 239.0 71.5 L 240.5 73.0 L 243.0 73.5 L 245.0 73.5 L 247.0 73.5 L 249.0 73.5 L 251.0 73.5 L 253.0 73.5 L 255.0 73.5 L 256.5 73.0 Z M 8.0 65.5 L 10.0 65.5 L 12.0 65.5 L 14.0 65.5 L 16.0 65.5 L 18.0 65.5 L 20.0 65.5 L 22.0 65.5 L 24.0 65.5 L 25.5 67.0 L 25.5 69.0 L 23.0 69.5 L 21.0 69.5 L 19.0 69.5 L 17.0 69.5 L 15.0 69.5 L 13.0 69.5 L 11.0 69.5 L 9.0 69.5 L 8.0 65.5 Z M 49.5 99.0 L 49.5 97.0 L 49.5 95.0 L 49.5 93.0 L 49.5 91.0 L 49.5 89.0 L 49.5 87.0 L 49.5 85.0 L 49.5 83.0 L 49.5 81.0 L 49.5 79.0 L 49.5 77.0 L 49.5 75.0 L 49.5 73.0 L 49.5 71.0 L 49.5 69.0 L 49.5 67.0 L 51.0 65.5 L 53.0 65.5 L 55.0 65.5 L 57.0 65.5 L 59.0 65.5 L 61.0 65.5 L 63.0 65.5 L 65.0 65.5 L 67.0 65.5 L 69.0 65.5 L 71.0 65.5 L 73.0 65.5 L 75.0 65.5 L 77.0 65.5 L 79.0 65.5 L 81.0 65.5 L 83.0 65.5 L 85.0 65.5 L 87.0 65.5 L 89.0 65.5 L 91.0 65.5 L 93.0 65.5 L 95.0 65.5 L 97.0 65.5 L 99.0 65.5 L 101.0 65.5 L 103.0 65.5 L 105.0 65.5 L 107.0 65.5 L 107.5 68.0 L 106.0 69.5 L 104.0 69.5 L 102.0 69.5 L 100.0 69.5 L 98.0 69.5 L 96.0 69.5 L 94.0 69.5 L 92.0 69.5 L 90.0 69.5 L 88.0 69.5 L 86.0 69.5 L 84.0 69.5 L 82.0 69.5 L 80.0 69.5 L 78.0 69.5 L 76.0 69.5 L 74.0 69.5 L 72.0 69.5 L 70.0 69.5 L 68.0 69.5 L 66.0 69.5 L 64.0 69.5 L 62.0 69.5 L 60.0 69.5 L 58.0 69.5 L 56.0 69.5 L 54.0 69.5 L 52.5 71.0 L 52.5 73.0 L 52.5 75.0 L 52.5 77.0 L 52.5 79.0 L 52.5 81.0 L 52.5 83.0 L 52.5 85.0 L 52.5 87.0 L 52.5 89.0 L 52.5 91.0 L 52.5 93.0 L 52.5 95.0 L 52.5 97.0 L 52.5 99.0 L 49.5 99.0 Z M 8.0 75.5 L 10.0 75.5 L 12.0 75.5 L 14.0 75.5 L 16.0 75.5 L 18.0 75.5 L 20.0 75.5 L 22.0 75.5 L 24.0 75.5 L 25.5 77.0 L 24.0 78.5 L 22.0 78.5 L 20.0 78.5 L 18.0 78.5 L 16.0 78.5 L 14.0 78.5 L 12.0 78.5 L 10.0 78.5 L 8.0 78.5 L 8.0 75.5 Z M 58.5 99.0 L 58.5 97.0 L 58.5 95.0 L 58.5 93.0 L 58.5 91.0 L 58.5 89.0 L 58.5 87.0 L 58.5 85.0 L 58.5 83.0 L 58.5 81.0 L 58.5 79.0 L 58.5 77.0 L 60.0 75.5 L 62.0 75.5 L 64.0 75.5 L 66.0 75.5 L 68.0 75.5 L 70.0 75.5 L 72.0 75.5 L 74.0 75.5 L 76.0 75.5 L 78.0 75.5 L 80.0 75.5 L 82.0 75.5 L 84.0 75.5 L 86.0 75.5 L 88.0 75.5 L 90.0 75.5 L 92.0 75.5 L 94.0 75.5 L 96.0 75.5 L 98.0 75.5 L 100.0 75.5 L 102.0 75.5 L 104.0 75.5 L 106.0 75.5 L 107.5 77.0 L 106.0 78.5 L 104.0 78.5 L 102.0 78.5 L 100.0 78.5 L 98.0 78.5 L 96.0 78.5 L 94.0 78.5 L 92.0 78.5 L 90.0 78.5 L 88.0 78.5 L 86.0 78.5 L 84.0 78.5 L 82.0 78.5 L 80.0 78.5 L 78.0 78.5 L 76.0 78.5 L 74.0 78.5 L 72.0 78.5 L 70.0 78.5 L 68.0 78.5 L 66.0 78.5 L 64.0 78.5 L 62.0 78.5 L 61.5 81.0 L 61.5 83.0 L 61.5 85.0 L 61.5 87.0 L 61.5 89.0 L 61.5 91.0 L 61.5 93.0 L 61.5 95.0 L 61.5 97.0 L 61.5 99.0 L 58.5 99.0 Z" fill="#FFFFFF" fill-rule="evenodd"/></svg>