<svg xmlns="http://www.w3.org/2000/svg" viewBox="0 0 1920 1080" width="1920" height="1080">
  <defs>
    <radialGradient id="hGlow" cx="90%" cy="10%" r="45%">
      <stop offset="0%" stop-color="#F59E0B" stop-opacity="0.13"/>
      <stop offset="100%" stop-opacity="0"/>
    </radialGradient>
    <pattern id="flow" width="48" height="48" patternUnits="userSpaceOnUse">
      <path d="M0 24 L48 24" stroke="#F59E0B" stroke-opacity="0.08" stroke-width="0.6"/>
      <path d="M24 0 L24 48" stroke="#F59E0B" stroke-opacity="0.04" stroke-width="0.6"/>
    </pattern>
  </defs>
  <rect width="1920" height="1080" fill="#030303"/>

  <g transform="translate(520 240)">
    <rect width="880" height="540" rx="20" fill="#0A0A0A" stroke="#ffffff" stroke-opacity="0.05"/>
    <rect width="880" height="540" rx="20" fill="url(#hGlow)"/>

    <g transform="translate(36 34)" font-family="Inter, sans-serif">
      <text font-size="20" font-weight="600" fill="#ffffff" y="24">Hermès</text>
      <text y="52" font-size="11" fill="#ffffff" fill-opacity="0.4" letter-spacing="0.2em">B2B · FLUSSI INDUSTRIALI</text>

      <g transform="translate(688 -4)">
        <rect width="120" height="28" rx="14" fill="#F59E0B" fill-opacity="0.08" stroke="#F59E0B" stroke-opacity="0.35"/>
        <circle cx="16" cy="14" r="3.5" fill="#F59E0B"/>
        <text x="28" y="19" font-size="12" font-weight="600" fill="#F59E0B">In arrivo</text>
      </g>
    </g>

    <g transform="translate(60 140)">
      <rect width="760" height="340" rx="14" fill="url(#flow)" stroke="#F59E0B" stroke-opacity="0.08"/>

      <g transform="translate(80 150)" stroke="#F59E0B" stroke-opacity="0.35" fill="none">
        <circle cx="0" cy="20" r="10" fill="#F59E0B" fill-opacity="0.15"/>
        <path d="M10 20 L180 20" stroke-width="1.5"/>
        <rect x="180" y="5" width="120" height="30" rx="6" fill="#F59E0B" fill-opacity="0.08"/>
        <path d="M300 20 L470 20" stroke-width="1.5"/>
        <rect x="470" y="5" width="120" height="30" rx="6" fill="#F59E0B" fill-opacity="0.08"/>
        <path d="M590 20 L600 20" stroke-width="1.5"/>
      </g>

      <g font-family="Inter, sans-serif" font-size="11" fill="#ffffff" fill-opacity="0.55" text-anchor="middle">
        <text x="240" y="200">ORDINE</text>
        <text x="390" y="200">PRODUZIONE</text>
        <text x="540" y="200">LOGISTICA</text>
      </g>

      <text x="380" y="320" font-family="Inter, sans-serif" font-size="11" text-anchor="middle" fill="#ffffff" fill-opacity="0.35" letter-spacing="0.2em">ORCHESTRAZIONE B2B · ANTEPRIMA</text>
    </g>
  </g>

  <g transform="translate(160 880)" font-family="Inter, sans-serif">
    <text font-size="56" font-weight="700" fill="#ffffff" letter-spacing="-0.02em">Hermès</text>
    <text y="56" font-size="20" fill="#ffffff" fill-opacity="0.55">Per flussi industriali e B2B. In arrivo.</text>
  </g>
</svg>
